<svg width="10" height="16" viewBox="0 0 10 16" fill="none" xmlns="http://www.w3.org/2000/svg">
<path fill-rule="evenodd" clip-rule="evenodd" d="M5 0C4.44772 0 4 0.447715 4 1V12.585L1.70711 10.2929C1.34662 9.93241 0.779392 9.90468 0.387101 10.2097L0.292893 10.2929C-0.0675907 10.6534 -0.0953203 11.2206 0.209705 11.6129L0.292893 11.7071L4.29289 15.7071L4.33685 15.7485L4.40469 15.8037L4.51594 15.8753L4.62866 15.9288L4.73401 15.9642L4.88253 15.9932L5 16L5.07524 15.9972L5.20073 15.9798L5.31214 15.9503L5.42322 15.9063L5.52071 15.854L5.61675 15.7872C5.64847 15.7623 5.67864 15.7356 5.70711 15.7071L9.70711 11.7071C10.0976 11.3166 10.0976 10.6834 9.70711 10.2929C9.34662 9.93241 8.77939 9.90468 8.3871 10.2097L8.29289 10.2929L6 12.585V1C6 0.447715 5.55228 0 5 0Z" fill="#EC533E"/>
</svg>
