<svg width="10" height="16" viewBox="0 0 10 16" fill="none" xmlns="http://www.w3.org/2000/svg">
<path fill-rule="evenodd" clip-rule="evenodd" d="M5 16C4.44772 16 4 15.5523 4 15V3.415L1.70711 5.70711C1.34662 6.06759 0.779392 6.09532 0.387101 5.7903L0.292893 5.70711C-0.0675907 5.34662 -0.0953203 4.77939 0.209705 4.3871L0.292893 4.29289L4.29289 0.292893L4.33685 0.251496L4.40469 0.196335L4.51594 0.124671L4.62866 0.0712255L4.73401 0.0358451L4.88253 0.00683422L5 0L5.07524 0.00278786L5.20073 0.0202401L5.31214 0.0497381L5.42322 0.0936734L5.52071 0.145995L5.61675 0.212786C5.64847 0.237669 5.67864 0.264427 5.70711 0.292893L9.70711 4.29289C10.0976 4.68342 10.0976 5.31658 9.70711 5.70711C9.34662 6.06759 8.77939 6.09532 8.3871 5.7903L8.29289 5.70711L6 3.415V15C6 15.5523 5.55228 16 5 16Z" fill="#53C058"/>
</svg>
