<svg viewBox="0 0 106 32" fill="none" xmlns="http://www.w3.org/2000/svg">
<path fill-rule="evenodd" clip-rule="evenodd" d="M4.17108 27.8016V31.9286H0V7.16667H13.1549L13.6362 7.17859C16.5601 7.17859 18.9303 9.52377 18.9303 12.4167V22.5635C18.9303 25.4564 16.5601 27.8016 13.6362 27.8016H4.17108ZM4.17108 23.6746V11.2936H9.94642H11.3903H12.6737C13.8255 11.2936 14.7592 12.2175 14.7592 13.3571V18.9127V20.1825V20.3413V21.6111C14.7592 22.7507 13.8255 23.6746 12.6737 23.6746H11.3903H10.2673H4.17108Z" fill="#E0431E"/>
<path d="M25.1869 0.5C26.5159 0.5 27.5933 1.56599 27.5933 2.88095C27.5933 4.19592 26.5159 5.2619 25.1869 5.2619C23.8579 5.2619 22.7805 4.19592 22.7805 2.88095C22.7805 1.56599 23.8579 0.5 25.1869 0.5Z" fill="#E0431E"/>
<path d="M23.1014 7.16667H27.2724V27.8016H23.1014V7.16667Z" fill="#E0431E"/>
<path d="M47.807 27.8016V23.6746H40.1065H38.9836H37.7001C36.5483 23.6746 35.6146 22.7507 35.6146 21.6111V20.3413V20.1825V18.9127V13.3571C35.6146 12.2175 36.5483 11.2936 37.7001 11.2936H38.9836H40.4274H47.807V7.16667H37.2189L36.7376 7.17859C33.8138 7.17859 31.4435 9.52377 31.4435 12.4167V22.5635C31.4435 25.4564 33.8138 27.8016 36.7376 27.8016H47.807Z" fill="#E0431E"/>
<path fill-rule="evenodd" clip-rule="evenodd" d="M57.4326 7.16667H58.3951H62.887H66.4164L66.8977 7.17859C69.8215 7.17859 72.1918 9.52377 72.1918 12.4167V22.5635C72.1918 25.4564 69.8215 27.8016 66.8977 27.8016H62.887H58.3951H56.9513C54.0275 27.8016 51.6572 25.4564 51.6572 22.5635V12.4167C51.6572 9.52377 54.0275 7.17859 56.9513 7.17859L57.4326 7.16667ZM59.1972 11.2936H58.3951H57.9138C56.762 11.2936 55.8283 12.2175 55.8283 13.3571V18.9127V20.1825V20.3413V21.6111C55.8283 22.7507 56.762 23.6746 57.9138 23.6746H58.3951H59.1972H60.3202H63.5288H65.9351C67.087 23.6746 68.0207 22.7507 68.0207 21.6111V20.3413V20.1825V18.9127V13.3571C68.0207 12.2175 67.087 11.2936 65.9351 11.2936H63.2079H59.1972Z" fill="#E0431E"/>
<path d="M76.3628 7.16667H87.2718L87.7531 7.17859C88.9558 7.17859 90.0648 7.5754 90.9537 8.24391C91.8453 7.56819 92.9603 7.16667 94.1701 7.16667H100.254C103.178 7.16667 105.548 9.51184 105.548 12.4048L105.56 12.881V27.8016H101.389V13.3571C101.389 12.2175 100.456 11.2936 99.3038 11.2936H95.1327C93.9809 11.2936 93.0472 12.2175 93.0472 13.3571V27.8016H88.8761V13.3571C88.8761 12.2175 87.9424 11.2936 86.7905 11.2936H80.5339V27.8016H76.3628V7.16667Z" fill="#E0431E"/>
</svg>
