<?xml version="1.0" encoding="utf-8"?>
<svg xmlns="http://www.w3.org/2000/svg" xmlns:xlink="http://www.w3.org/1999/xlink">

  <!-- cart dark -->
  <symbol id="cart" viewBox="0 0 20 20" fill="none" xmlns="http://www.w3.org/2000/svg">
    <path d="M4 7H16V16C16 17.1046 15.1046 18 14 18H6C4.89543 18 4 17.1046 4 16V7Z" stroke="black" stroke-width="2"/>
    <path id="path-1" d="M7 8V5C7 3.34315 8.34315 2 10 2V2C11.6569 2 13 3.34315 13 5V8" stroke-width="2" stroke="black" stroke-linecap="round" stroke-linejoin="round"/>
  </symbol>

  <!-- cart light -->
  <symbol id="cart-light" viewBox="0 0 20 20" fill="none" xmlns="http://www.w3.org/2000/svg">
    <path d="M4 7H16V16C16 17.1046 15.1046 18 14 18H6C4.89543 18 4 17.1046 4 16V7Z" stroke="white" stroke-width="2"/>
    <path d="M7 8V5C7 3.34315 8.34315 2 10 2V2C11.6569 2 13 3.34315 13 5V8" stroke="white" stroke-width="2" stroke-linecap="round" stroke-linejoin="round"/>
  </symbol>

  <!-- star -->
  <symbol id="star" viewBox="0 0 16 16" fill="none" xmlns="http://www.w3.org/2000/svg">
    <path fill-rule="evenodd" clip-rule="evenodd" d="M7.55472 13.9827L4.09222 15.885C3.62452 16.1419 3.04604 15.954 2.80016 15.4652C2.70225 15.2706 2.66846 15.0477 2.70403 14.831L3.36531 10.8019C3.41854 10.4775 3.31564 10.1466 3.09015 9.91691L0.288927 7.06349C-0.0894508 6.67806 -0.0971931 6.04507 0.271634 5.64966C0.418503 5.49221 0.610945 5.38974 0.819169 5.35812L4.69037 4.77028C5.00199 4.72296 5.27137 4.51843 5.41074 4.22335L7.14199 0.557552C7.37584 0.0623919 7.94953 -0.140909 8.42336 0.103467C8.61204 0.200779 8.76477 0.360377 8.85789 0.557552L10.5891 4.22335C10.7285 4.51843 10.9979 4.72296 11.3095 4.77028L15.1807 5.35812C15.7036 5.43752 16.0659 5.94487 15.9899 6.49131C15.9597 6.70891 15.8616 6.91001 15.7109 7.06349L12.9097 9.91691C12.6842 10.1466 12.5813 10.4775 12.6346 10.8019L13.2958 14.831C13.3852 15.3752 13.0354 15.8921 12.5146 15.9854C12.3072 16.0226 12.0939 15.9873 11.9077 15.885L8.44515 13.9827C8.16643 13.8295 7.83345 13.8295 7.55472 13.9827ZM5.01559 13.0957L6.5917 12.2298C7.47016 11.7472 8.52971 11.7472 9.40817 12.2298L10.9843 13.0957L10.661 11.1258C10.5051 10.1761 10.8075 9.20337 11.4825 8.51581L12.9318 7.03955L11.0093 6.74762C10.0323 6.59926 9.20151 5.96851 8.78068 5.07743L7.99994 3.42428L7.2192 5.07743C6.79837 5.96851 5.96761 6.59926 4.99062 6.74762L3.0681 7.03955L4.51736 8.51581C5.19234 9.20337 5.49478 10.1761 5.3389 11.1258L5.01559 13.0957Z" fill="#FFBF1B"/>
  </symbol>

  <symbol id="star-filled" viewBox="0 0 16 16" fill="none" xmlns="http://www.w3.org/2000/svg">
    <path fill-rule="evenodd" clip-rule="evenodd" d="M7.55472 13.9827L4.09222 15.885C3.62452 16.1419 3.04604 15.954 2.80016 15.4652C2.70225 15.2706 2.66846 15.0477 2.70403 14.831L3.36531 10.8019C3.41854 10.4775 3.31564 10.1466 3.09015 9.91691L0.288927 7.06349C-0.0894508 6.67806 -0.0971931 6.04507 0.271634 5.64966C0.418503 5.49221 0.610945 5.38974 0.819169 5.35812L4.69037 4.77028C5.00199 4.72296 5.27137 4.51843 5.41074 4.22335L7.14199 0.557552C7.37584 0.0623919 7.94953 -0.140909 8.42336 0.103467C8.61204 0.200779 8.76477 0.360377 8.85789 0.557552L10.5891 4.22335C10.7285 4.51843 10.9979 4.72296 11.3095 4.77028L15.1807 5.35812C15.7036 5.43752 16.0659 5.94487 15.9899 6.49131C15.9597 6.70891 15.8616 6.91001 15.7109 7.06349L12.9097 9.91691C12.6842 10.1466 12.5813 10.4775 12.6346 10.8019L13.2958 14.831C13.3852 15.3752 13.0354 15.8921 12.5146 15.9854C12.3072 16.0226 12.0939 15.9873 11.9077 15.885L8.44515 13.9827C8.16643 13.8295 7.83345 13.8295 7.55472 13.9827Z" fill="#FFBF1B"/>
  </symbol>

</svg>
